HIERARCHY
ROOT Hips
{
    OFFSET 0.000000 0.000000 0.000000
    CHANNELS 6 Xposition Yposition Zposition Zrotation Xrotation Yrotation
    JOINT Spine
    {
        OFFSET 0.000002 7.756658 -0.000012
        CHANNELS 3 Zrotation Xrotation Yrotation
        JOINT Spine1
        {
            OFFSET 0.000007 20.811090 -0.000045
            CHANNELS 3 Zrotation Xrotation Yrotation
            JOINT Neck
            {
                OFFSET 0.000007 22.515327 -0.000037
                CHANNELS 3 Zrotation Xrotation Yrotation
                JOINT Head
                {
                    OFFSET -0.000005 14.501746 1.902187
                    CHANNELS 3 Zrotation Xrotation Yrotation
                    End Site
                    {
                        OFFSET 0.000000 19.022141 0.000000
                    }
                }
            }
            JOINT LeftShoulder
            {
                OFFSET 3.797828 16.121201 -0.677287
                CHANNELS 3 Zrotation Xrotation Yrotation
                JOINT LeftArm
                {
                    OFFSET 11.576579 0.000005 0.000018
                    CHANNELS 3 Zrotation Xrotation Yrotation
                    JOINT LeftForeArm
                    {
                        OFFSET 29.906395 0.000006 -0.000006
                        CHANNELS 3 Zrotation Xrotation Yrotation
                        JOINT LeftHand
                        {
                            OFFSET 24.318306 0.000006 0.000010
                            CHANNELS 3 Zrotation Xrotation Yrotation
                            JOINT LeftHandThumb1
                            {
                                OFFSET 1.987813 -2.258873 3.162430
                                CHANNELS 3 Zrotation Xrotation Yrotation
                                JOINT LeftHandThumb2
                                {
                                    OFFSET 3.002280 0.000015 -0.000003
                                    CHANNELS 3 Zrotation Xrotation Yrotation
                                    JOINT LeftHandThumb3
                                    {
                                        OFFSET 2.566101 -0.000002 0.000004
                                        CHANNELS 3 Zrotation Xrotation Yrotation
                                        End Site
                                        {
                                            OFFSET 2.440626 0.000000 0.000000
                                        }
                                    }
                                }
                            }
                            JOINT LeftHandIndex1
                            {
                                OFFSET 8.131968 0.000005 3.162434
                                CHANNELS 3 Zrotation Xrotation Yrotation
                                JOINT LeftHandIndex2
                                {
                                    OFFSET 4.517768 -0.000005 0.000003
                                    CHANNELS 3 Zrotation Xrotation Yrotation
                                    JOINT LeftHandIndex3
                                    {
                                        OFFSET 2.258862 0.000007 -0.000003
                                        CHANNELS 3 Zrotation Xrotation Yrotation
                                        End Site
                                        {
                                            OFFSET 2.148437 0.000000 0.000000
                                        }
                                    }
                                }
                            }
                            JOINT LeftHandMiddle1
                            {
                                OFFSET 8.131959 0.000009 1.048122
                                CHANNELS 3 Zrotation Xrotation Yrotation
                                JOINT LeftHandMiddle2
                                {
                                    OFFSET 4.969531 -0.000002 0.000006
                                    CHANNELS 3 Zrotation Xrotation Yrotation
                                    JOINT LeftHandMiddle3
                                    {
                                        OFFSET 2.710667 -0.000010 0.000006
                                        CHANNELS 3 Zrotation Xrotation Yrotation
                                        End Site
                                        {
                                            OFFSET 2.578118 0.000000 0.000000
                                        }
                                    }
                                }
                            }
                            JOINT LeftHandRing1
                            {
                                OFFSET 7.680212 -0.000004 -1.048116
                                CHANNELS 3 Zrotation Xrotation Yrotation
                                JOINT LeftHandRing2
                                {
                                    OFFSET 4.517768 -0.000004 0.000004
                                    CHANNELS 3 Zrotation Xrotation Yrotation
                                    JOINT LeftHandRing3
                                    {
                                        OFFSET 2.258862 0.000008 -0.000000
                                        CHANNELS 3 Zrotation Xrotation Yrotation
                                        End Site
                                        {
                                            OFFSET 2.148437 0.000000 0.000000
                                        }
                                    }
                                }
                            }
                            JOINT LeftHandPinky1
                            {
                                OFFSET 7.228394 0.000009 -3.162429
                                CHANNELS 3 Zrotation Xrotation Yrotation
                                JOINT LeftHandPinky2
                                {
                                    OFFSET 3.614196 0.000003 0.000003
                                    CHANNELS 3 Zrotation Xrotation Yrotation
                                    JOINT LeftHandPinky3
                                    {
                                        OFFSET 1.807101 0.000006 -0.000000
                                        CHANNELS 3 Zrotation Xrotation Yrotation
                                        End Site
                                        {
                                            OFFSET 1.718745 0.000000 0.000000
                                        }
                                    }
                                }
                            }
                        }
                    }
                }
            }
            JOINT RightShoulder
            {
                OFFSET -3.797829 16.121201 -0.677311
                CHANNELS 3 Zrotation Xrotation Yrotation
                JOINT RightArm
                {
                    OFFSET -11.576583 0.000003 -0.000004
                    CHANNELS 3 Zrotation Xrotation Yrotation
                    JOINT RightForeArm
                    {
                        OFFSET -29.906404 0.000003 -0.000004
                        CHANNELS 3 Zrotation Xrotation Yrotation
                        JOINT RightHand
                        {
                            OFFSET -24.318310 -0.000012 0.000006
                            CHANNELS 3 Zrotation Xrotation Yrotation
                            JOINT RightHandThumb1
                            {
                                OFFSET -1.987830 -2.258884 3.162428
                                CHANNELS 3 Zrotation Xrotation Yrotation
                                JOINT RightHandThumb2
                                {
                                    OFFSET -3.002295 -0.000003 0.000001
                                    CHANNELS 3 Zrotation Xrotation Yrotation
                                    JOINT RightHandThumb3
                                    {
                                        OFFSET -2.566098 -0.000004 0.000001
                                        CHANNELS 3 Zrotation Xrotation Yrotation
                                        End Site
                                        {
                                            OFFSET -2.440626 0.000000 0.000000
                                        }
                                    }
                                }
                            }
                            JOINT RightHandIndex1
                            {
                                OFFSET -8.131980 -0.000009 3.162429
                                CHANNELS 3 Zrotation Xrotation Yrotation
                                JOINT RightHandIndex2
                                {
                                    OFFSET -4.517748 -0.000001 0.000001
                                    CHANNELS 3 Zrotation Xrotation Yrotation
                                    JOINT RightHandIndex3
                                    {
                                        OFFSET -2.258874 -0.000001 0.000001
                                        CHANNELS 3 Zrotation Xrotation Yrotation
                                        End Site
                                        {
                                            OFFSET -2.148437 0.000000 0.000000
                                        }
                                    }
                                }
                            }
                            JOINT RightHandMiddle1
                            {
                                OFFSET -8.131950 -0.000004 1.048122
                                CHANNELS 3 Zrotation Xrotation Yrotation
                                JOINT RightHandMiddle2
                                {
                                    OFFSET -4.969543 0.000001 0.000001
                                    CHANNELS 3 Zrotation Xrotation Yrotation
                                    JOINT RightHandMiddle3
                                    {
                                        OFFSET -2.710669 0.000001 0.000001
                                        CHANNELS 3 Zrotation Xrotation Yrotation
                                        End Site
                                        {
                                            OFFSET -2.578118 0.000000 0.000000
                                        }
                                    }
                                }
                            }
                            JOINT RightHandRing1
                            {
                                OFFSET -7.680168 -0.000001 -1.048115
                                CHANNELS 3 Zrotation Xrotation Yrotation
                                JOINT RightHandRing2
                                {
                                    OFFSET -4.517748 -0.000001 0.000001
                                    CHANNELS 3 Zrotation Xrotation Yrotation
                                    JOINT RightHandRing3
                                    {
                                        OFFSET -2.258874 -0.000001 0.000000
                                        CHANNELS 3 Zrotation Xrotation Yrotation
                                        End Site
                                        {
                                            OFFSET -2.148437 0.000000 0.000000
                                        }
                                    }
                                }
                            }
                            JOINT RightHandPinky1
                            {
                                OFFSET -7.228392 0.000002 -3.162425
                                CHANNELS 3 Zrotation Xrotation Yrotation
                                JOINT RightHandPinky2
                                {
                                    OFFSET -3.614207 -0.000005 -0.000002
                                    CHANNELS 3 Zrotation Xrotation Yrotation
                                    JOINT RightHandPinky3
                                    {
                                        OFFSET -1.807082 0.000007 0.000007
                                        CHANNELS 3 Zrotation Xrotation Yrotation
                                        End Site
                                        {
                                            OFFSET -1.718745 0.000000 0.000000
                                        }
                                    }
                                }
                            }
                        }
                    }
                }
            }
        }
    }
    JOINT LeftUpLeg
    {
        OFFSET 9.511065 -0.000002 0.000012
        CHANNELS 3 Zrotation Xrotation Yrotation
        JOINT LeftLeg
        {
            OFFSET 0.000001 -43.875633 0.000010
            CHANNELS 3 Zrotation Xrotation Yrotation
            JOINT LeftFoot
            {
                OFFSET 0.000005 -35.354156 -0.000019
                CHANNELS 3 Zrotation Xrotation Yrotation
                JOINT LeftToeBase
                {
                    OFFSET -0.000000 -6.182192 14.266604
                    CHANNELS 3 Zrotation Xrotation Yrotation
                    End Site
                    {
                        OFFSET 0.000000 0.000000 3.804428
                    }
                }
            }
        }
    }
    JOINT RightUpLeg
    {
        OFFSET -9.511065 0.000002 -0.000012
        CHANNELS 3 Zrotation Xrotation Yrotation
        JOINT RightLeg
        {
            OFFSET -0.000003 -43.875633 0.000002
            CHANNELS 3 Zrotation Xrotation Yrotation
            JOINT RightFoot
            {
                OFFSET -0.000007 -35.354145 0.000018
                CHANNELS 3 Zrotation Xrotation Yrotation
                JOINT RightToeBase
                {
                    OFFSET 0.000000 -6.182191 14.266602
                    CHANNELS 3 Zrotation Xrotation Yrotation
                    End Site
                    {
                        OFFSET 0.000000 0.000000 3.804428
                    }
                }
            }
        }
    }
}
MOTION
Frames:    4
Frame Time:    0.002778
20.944767    91.453590    592.919312    2.584078    1.144510    -163.370071    -0.416390    3.007334    -1.716742    -2.081945    3.005432    -1.629381    5.042555    1.158808    -16.490448    5.042557    1.158807    -16.490446    2.486410    -3.204468    0.039304    -55.908070    4.236444    -17.836298    -35.019283    5.364257    -69.166306    30.895002    4.699178    8.413106    47.448208    38.866432    -34.355034    -35.000004    -0.000002    -0.000003    -0.000000    0.000000    -0.000000    -0.000007    10.000002    0.000001    -0.000000    0.000000    -0.000000    -0.000000    0.000000    -0.000000    -0.000000    0.000000    -0.000000    -0.000000    0.000000    -0.000000    -0.000000    0.000000    -0.000000    -0.000000    0.000000    -0.000000    -0.000000    0.000000    -0.000000    -0.000000    0.000000    -0.000000    0.000000    -9.999992    0.000000    -0.000000    0.000000    -0.000000    -0.000000    0.000000    -0.000000    -9.004197    2.328490    1.129717    69.166428    -4.603092    -0.189485    13.765007    22.083563    64.880547    -61.785091    18.830086    -9.867510    -47.448215    38.866432    34.355034    34.999996    -0.000004    -0.000008    -0.000000    0.000000    -0.000000    0.000002    9.999997    -0.000003    -0.000000    0.000000    -0.000000    -0.000000    0.000000    -0.000000    -0.000000    0.000000    -0.000000    -0.000000    0.000000    -0.000000    -0.000000    0.000000    -0.000000    -0.000000    0.000000    -0.000000    -0.000000    0.000000    -0.000000    -0.000000    0.000000    -0.000000    -0.000002    -10.000001    -0.000001    -0.000000    0.000000    -0.000000    -0.000000    0.000000    -0.000000    18.000021    -8.694657    -3.795117    0.000000    25.994041    -0.000002    -13.582621    -16.406488    10.485326    0.000000    -0.420856    0.000002    -9.671775    -13.930387    0.182889    0.000001    34.308746    -0.000002    12.554653    -15.170224    -12.769278    -0.000000    -3.011204    -0.000000    
20.940931    91.455772    592.941406    2.588060    1.109367    -163.380112    -0.416996    3.018456    -1.729932    -2.084982    3.016541    -1.642119    5.057249    1.134670    -16.465000    5.057248    1.134668    -16.464998    2.491739    -3.212607    0.045179    -55.963680    4.366245    -17.979303    -35.092270    5.195415    -69.059380    30.847269    4.640840    8.334702    47.448219    38.866440    -34.355045    -35.000000    0.000000    -0.000001    -0.000000    0.000000    -0.000000    -0.000000    10.000007    -0.000000    -0.000000    0.000000    -0.000000    -0.000000    0.000000    -0.000000    -0.000000    0.000000    -0.000000    -0.000000    0.000000    -0.000000    -0.000000    0.000000    -0.000000    -0.000000    0.000000    -0.000000    -0.000000    0.000000    -0.000000    -0.000000    0.000000    -0.000000    0.000000    -9.999995    0.000002    -0.000000    0.000000    -0.000000    -0.000000    0.000000    -0.000000    -9.012326    2.379599    1.141186    69.306656    -4.327111    -0.213591    13.715046    22.034679    64.691025    -61.818634    18.764389    -9.820247    -47.448208    38.866428    34.355030    35.000000    0.000001    -0.000003    -0.000000    0.000000    -0.000000    0.000001    10.000002    0.000004    -0.000000    0.000000    -0.000000    -0.000000    0.000000    -0.000000    -0.000000    0.000000    -0.000000    -0.000000    0.000000    -0.000000    -0.000000    0.000000    -0.000000    -0.000000    0.000000    -0.000000    -0.000000    0.000000    -0.000000    -0.000000    0.000000    -0.000000    0.000004    -9.999997    0.000002    -0.000000    0.000000    -0.000000    -0.000000    0.000000    -0.000000    17.995884    -8.728241    -3.759929    -0.000000    25.972893    0.000000    -13.596722    -16.387430    10.469548    0.000000    -0.419561    0.000000    -9.682653    -13.974920    0.185973    0.000002    34.291508    -0.000003    12.550500    -15.147131    -12.778304    0.000000    -3.009326    0.000000    
20.932617    91.457840    592.967102    2.592578    1.075251    -163.382874    -0.416784    3.031288    -1.745464    -2.083920    3.029367    -1.657327    5.073633    1.112176    -16.439230    5.073631    1.112176    -16.439230    2.492965    -3.218172    0.047308    -56.019444    4.495150    -18.121801    -35.169930    5.034426    -68.960869    30.798883    4.586967    8.263561    47.448204    38.866440    -34.355026    -34.999996    0.000002    0.000003    -0.000000    0.000000    -0.000000    -0.000000    10.000001    0.000002    -0.000000    0.000000    -0.000000    -0.000000    0.000000    -0.000000    -0.000000    0.000000    -0.000000    -0.000000    0.000000    -0.000000    -0.000000    0.000000    -0.000000    -0.000000    0.000000    -0.000000    -0.000000    0.000000    -0.000000    -0.000000    0.000000    -0.000000    0.000003    -9.999998    0.000000    -0.000000    0.000000    -0.000000    -0.000000    0.000000    -0.000000    -9.022721    2.433719    1.146877    69.447983    -4.058350    -0.239060    13.651345    21.999626    64.531693    -61.845703    18.690943    -9.771817    -47.448200    38.866428    34.355019    34.999996    -0.000001    0.000007    -0.000000    0.000000    -0.000000    0.000001    9.999999    0.000003    -0.000000    0.000000    -0.000000    -0.000000    0.000000    -0.000000    -0.000000    0.000000    -0.000000    -0.000000    0.000000    -0.000000    -0.000000    0.000000    -0.000000    -0.000000    0.000000    -0.000000    -0.000000    0.000000    -0.000000    -0.000000    0.000000    -0.000000    0.000000    -9.999999    0.000000    -0.000000    0.000000    -0.000000    -0.000000    0.000000    -0.000000    17.987902    -8.764079    -3.731472    -0.000002    25.949621    0.000001    -13.612511    -16.372898    10.454046    -0.000000    -0.419012    -0.000003    -9.696806    -14.019085    0.184554    -0.000002    34.274498    0.000002    12.541745    -15.118719    -12.788893    0.000000    -3.008349    0.000000    
20.926352    91.460449    592.994812    2.596119    1.041430    -163.384079    -0.416740    3.045794    -1.762238    -2.083693    3.043863    -1.673692    5.088580    1.089952    -16.415428    5.088580    1.089951    -16.415428    2.488864    -3.223966    0.048840    -56.076405    4.605651    -18.260395    -35.263489    4.868866    -68.875771    30.747417    4.518231    8.169063    47.448204    38.866421    -34.355026    -35.000000    -0.000001    0.000002    -0.000000    0.000000    -0.000000    0.000000    10.000001    -0.000002    -0.000000    0.000000    -0.000000    -0.000000    0.000000    -0.000000    -0.000000    0.000000    -0.000000    -0.000000    0.000000    -0.000000    -0.000000    0.000000    -0.000000    -0.000000    0.000000    -0.000000    -0.000000    0.000000    -0.000000    -0.000000    0.000000    -0.000000    -0.000003    -9.999996    -0.000000    -0.000000    0.000000    -0.000000    -0.000000    0.000000    -0.000000    -9.033514    2.477004    1.150481    69.587532    -3.819383    -0.268295    13.653790    21.933535    64.358131    -61.844700    18.601057    -9.727354    -47.448208    38.866428    34.355030    35.000004    0.000002    -0.000001    -0.000000    0.000000    -0.000000    -0.000002    10.000000    -0.000000    -0.000000    0.000000    -0.000000    -0.000000    0.000000    -0.000000    -0.000000    0.000000    -0.000000    -0.000000    0.000000    -0.000000    -0.000000    0.000000    -0.000000    -0.000000    0.000000    -0.000000    -0.000000    0.000000    -0.000000    -0.000000    0.000000    -0.000000    0.000002    -10.000003    0.000004    -0.000000    0.000000    -0.000000    -0.000000    0.000000    -0.000000    17.979549    -8.802025    -3.706536    -0.000002    25.927425    0.000000    -13.628409    -16.354855    10.439178    -0.000000    -0.417589    -0.000002    -9.711365    -14.063496    0.180623    -0.000002    34.257122    0.000003    12.534747    -15.090249    -12.800491    -0.000000    -3.004438    -0.000000    
